<svg xmlns="http://www.w3.org/2000/svg"
     width="512" height="512" viewBox="0 0 512 512">
  <path d="M 483.0 8.0 L 473.0 3.0 L 462.0 0.0 L 441.0 0.0 L 436.0 1.0 L 421.0 7.0 L 410.0 15.0 L 399.0 27.0 L 391.0 38.0 L 391.0 44.0 L 394.0 48.0 L 396.0 49.0 L 404.0 48.0 L 416.0 33.0 L 427.0 23.0 L 434.0 19.0 L 445.0 16.0 L 457.0 16.0 L 468.0 19.0 L 478.0 25.0 L 486.0 33.0 L 492.0 43.0 L 495.0 54.0 L 495.0 66.0 L 492.0 77.0 L 488.0 84.0 L 477.0 96.0 L 451.0 115.0 L 450.0 114.0 L 450.0 95.0 L 444.0 80.0 L 431.0 67.0 L 416.0 61.0 L 269.0 61.0 L 258.0 64.0 L 246.0 70.0 L 5.0 310.0 L 0.0 322.0 L 0.0 337.0 L 1.0 341.0 L 8.0 353.0 L 162.0 506.0 L 174.0 511.0 L 189.0 511.0 L 201.0 506.0 L 441.0 265.0 L 447.0 253.0 L 450.0 242.0 L 450.0 135.0 L 475.0 119.0 L 496.0 101.0 L 507.0 84.0 L 511.0 70.0 L 511.0 49.0 L 508.0 38.0 L 498.0 21.0 L 490.0 13.0 Z M 422.0 81.0 L 430.0 89.0 L 434.0 98.0 L 434.0 124.0 L 416.0 132.0 L 401.0 136.0 L 386.0 136.0 L 381.0 134.0 L 376.0 130.0 L 370.0 130.0 L 365.0 135.0 L 366.0 143.0 L 370.0 147.0 L 382.0 152.0 L 379.0 155.0 L 370.0 156.0 L 363.0 153.0 L 358.0 148.0 L 355.0 141.0 L 356.0 132.0 L 358.0 128.0 L 363.0 123.0 L 367.0 121.0 L 375.0 120.0 L 382.0 122.0 L 387.0 120.0 L 389.0 117.0 L 390.0 112.0 L 389.0 109.0 L 383.0 105.0 L 367.0 104.0 L 354.0 109.0 L 344.0 119.0 L 339.0 131.0 L 339.0 145.0 L 341.0 152.0 L 346.0 160.0 L 354.0 167.0 L 359.0 170.0 L 366.0 172.0 L 380.0 172.0 L 384.0 171.0 L 396.0 164.0 L 406.0 151.0 L 417.0 149.0 L 431.0 143.0 L 434.0 144.0 L 434.0 238.0 L 428.0 254.0 L 422.0 262.0 L 194.0 490.0 L 185.0 495.0 L 178.0 495.0 L 171.0 492.0 L 19.0 340.0 L 16.0 333.0 L 16.0 326.0 L 18.0 321.0 L 248.0 90.0 L 257.0 83.0 L 273.0 77.0 L 413.0 77.0 Z"
        fill="#000000"
        fill-rule="evenodd"
        clip-rule="evenodd"/>
</svg>
